<?xml version="1.0" standalone="no"?>
<!DOCTYPE svg PUBLIC "-//W3C//DTD SVG 20010904//EN"
 "http://www.w3.org/TR/2001/REC-SVG-20010904/DTD/svg10.dtd">
<svg version="1.0" xmlns="http://www.w3.org/2000/svg"
 width="172.000000pt" height="173.000000pt" viewBox="0 0 172.000000 173.000000"
 preserveAspectRatio="xMidYMid meet">

<g transform="translate(0.000000,173.000000) scale(0.100000,-0.100000)"
fill="#000000" stroke="none">
<path d="M833 1683 c-32 -12 -272 -392 -395 -623 -160 -302 -391 -898 -373
-967 3 -12 17 -26 32 -31 32 -11 9 -17 446 119 l318 99 172 -54 c95 -30 262
-82 372 -116 199 -60 200 -61 225 -42 14 11 26 28 28 39 3 20 -93 305 -168
498 -54 139 -206 454 -294 610 -73 128 -267 426 -298 457 -18 18 -40 22 -65
11z m124 -306 c210 -326 396 -708 508 -1045 21 -62 35 -116 31 -119 -3 -3
-134 34 -291 82 l-285 89 0 300 c0 329 -1 336 -61 336 -57 0 -59 -14 -59 -340
l0 -296 -282 -87 c-156 -48 -288 -88 -295 -87 -31 1 140 437 283 723 103 205
333 587 353 587 3 0 47 -64 98 -143z"/>
</g>
</svg>
